# xmcd CD database file
#
# Track frame offsets:
#	150
#	12857
#	25046
#	37584
#	52195
#	64722
#	77139
#	87828
#	100671
#	112412
#
# Disc length: 1653 seconds
#
# Revision: 0
# Processed by: cddbd v1.5.1PL0 Copyright (c) Steve Scherf et al.
# Submitted via: CDex 1.51
#
DISCID=7306730a
DTITLE=JIMMY REED - BLUES CAFE PRESENTS
DYEAR=2003
DGENRE=Jazz
TTITLE0=JIMMY REED - CARESS MY BABY
TTITLE1=JIMMY REED - MY BABY'S SO SWEET
TTITLE2=JIMMY REED - LITTLE RAIN
TTITLE3=JIMMY REED - I WAS SO YOUNG
TTITLE4=JIMMY REED - SHAME SHAME SHAME
TTITLE5=JIMMY REED - HONEST I DO 
TTITLE6=JIMMY REED - OH JOHN
TTITLE7=JIMMY REED - GO ON TO SCHOOL
TTITLE8=JIMMY REED - BOOGIE IN THE DARK
TTITLE9=JIMMY REED - I'M NERVOUS
EXTD=YEAR: 2003
EXTT0=
EXTT1=
EXTT2=
EXTT3=
EXTT4=
EXTT5=
EXTT6=
EXTT7=
EXTT8=
EXTT9=
PLAYORDER=
